<svg xmlns="http://www.w3.org/2000/svg" width="1005" height="255" stroke="#000" stroke-linecap="round" stroke-linejoin="round" fill="#fff" fill-rule="evenodd"><defs><linearGradient id="A" x1="50%" y1="0%" x2="50%" y2="100%"><stop offset="0%" stop-color="#ff7b00"/><stop offset="100%" stop-color="#ff4e03"/></linearGradient></defs><g stroke="none"><path fill="#f95100" d="M229.5 163.8l23-19.3 15.3 18.2-23 19.3z"/><g fill="url(#A)"><g fill-rule="nonzero"><path d="M557 19.6l-9.2.7c-1.5.3-4 .6-5.2.8-1.3.1-2.6.5-2.8.8-.3.3-1 .5-1.6.5s-1.3.1-1.4.4c-.1.2-.6.4-1 .4a25 25 0 0 0-7 2.3c-.4.3-1 .6-1.4.6-.3 0-.7.1-.8.3-.2.2-1.5 1-3 1.7A29 29 0 0 0 520 30c-.8.7-2 1.5-3.4 2.2-.4.2-1.4 1-2 1.6-.8.7-1.6 1.3-1.8 1.3A123 123 0 0 0 499.6 48c0 .3-.6 1.2-1.4 2-.8.8-1.4 1.7-1.4 2 0 .4-.4 1-.8 1.3-.5.5-1.2 1.6-1.6 2.7a96 96 0 0 1-2.3 4.1 21 21 0 0 0-1.7 3.4c-.1.7-.7 2-1.2 3-.6 1-1 2-1 2.6s-.3 1-.6 1.3c-.3.3-.6 1-.8 1.6-.1.6-.4 2-.7 3l-1.5 8.2c-.1 1.7-.4 3-.8 3.3-.8.7-.8 21.3.1 22 .4.4.6 1.3.6 3.3 0 1.6.2 3 .4 3s.4 1 .4 1.7c0 1.5.6 3.7 1.3 5 .2.4.4 1.2.4 1.7s.2 1.3.6 1.7c.3.5.6 1.2.6 1.7s.3 1 .6 1.4.6.8.6 1.2a19 19 0 0 0 1.7 3.5l1.8 3.5c1 2.2 5 9 6 9.6.2.1.7.8 1.2 1.6a120 120 0 0 0 11 11.3c.2 0 1 .6 2 1.3a18 18 0 0 0 4.5 3.2c.2 0 1.2.6 2.4 1.4 1 .8 2.2 1.4 2.4 1.4s.7.3 1 .6a10 10 0 0 0 2.1 1.1l2 1c.3.3 1.4.7 2.3.8s2 .5 2.5.8c.4.4 1 .6 1.6.6.4 0 1 .3 1.6.7.4.3 1.3.6 2 .6s1.2.1 1.3.4c.1.2 1 .4 2 .4 1 0 2.2.3 2.7.6.6.3 1.6.5 2.3.3.6 0 2 .1 2.8.4a102 102 0 0 0 19.9.1c.4-.2 1.6-.5 3-.7a27 27 0 0 0 4.1-.7l3-.6 2.5-.8 3-1c2-.6 11.8-5.3 13.6-6.6.5-.3 2-1.3 3.4-2.2a40 40 0 0 0 4.3-3.3l2.2-1.8c.7 0 6.4-6 6.4-6.5 0-.8-4.4-5.3-5.2-5.3-.3 0-1.7-1.4-3.2-3-1.5-1.6-3-3-3.3-3s-1.6-1-3-2.3l-4.7-4.2c-1.3-1-3-2.4-3.6-3-.7-.8-1.5-1.4-2-1.4-.3 0-2 1.4-3.7 3l-3.4 3c-.2 0-1 .5-1.7 1.2-1.5 1.3-8.7 5-9.8 5-.3 0-1 .2-1.4.5-1.3 1-3.7 1.2-10.6 1.2-6.7 0-10.5-.4-11.4-1.3-.3-.2-1-.4-1.4-.4-1.4 0-9.2-4-10.4-5-.5-.6-1-1-1.4-1a59 59 0 0 1-8.8-8.5c0-.3-.5-1.2-1.2-2a46 46 0 0 1-6.2-13.4c-2-8-1.7-21.4.7-26.6.2-.7.8-2 1-3 1.3-3.5 2.2-5.3 3.2-6.8.7-1 1.2-1.7 1.2-2s.6-1 1.2-1.5c.7-.7 1.2-1.4 1.2-1.7 0-.7 5-5.7 7-6.8a29 29 0 0 0 2.1-1.7c.3-.4.7-.7 1-.7s1.3-.6 2.4-1.4 2.3-1.4 2.6-1.4.8-.3 1-.6c.2-.3 1-.7 1.6-.8l3.4-.8c1.3-.4 3-.7 3.4-.7s1-.2 1.2-.4a51 51 0 0 1 11.8-.1c.5.3 2 .6 3.4 1 3 .6 11.2 4.6 12.7 6.2.6.7 1.3 1.2 1.6 1.2.7 0 4.2 3.6 5 5 1.3 2.4 1.8 2 15.8-11l4.5-3.7c1-.1 7-6.5 6.8-7.2-.3-1.6-12.3-12.5-13.8-12.5-.2 0-.4-.2-.4-.4s-.6-.7-1.3-1a40 40 0 0 1-3.6-2.1c-1.3-.8-2.6-1.4-3-1.4-.3 0-.7-.2-1-.4-.2-.3-2-1.2-5-2.5-.5-.2-1.7-.6-2.7-.8-1-.3-2-.7-2.2-1s-1-.3-2-.3-1.7-.3-2-.6c-.3-.4-1.2-.6-2-.6s-2-.2-2.5-.5c-.5-.2-2-.5-3.3-.5a31 31 0 0 1-4-.5c-.8-.2-4.3-.3-7.8-.1z"/><path d="M686.5 19.8c-.2.2-1.7.4-3.5.6l-8.6 1.4c-1.8.7-4 1.4-4.7 1.4-.4 0-1.4.3-2.4.8-1.5.6-2.6 1-5.6 2.2-.4.1-1 .4-1.3.6-.3.2-1.3.7-2.2 1-2 1-8.4 5-9.3 6-.4.4-1 .7-1.3.7s-1.2.7-2 1.5l-3.6 3c-2.8 2.2-4 3.2-4.5 4.6-.3.7-1.4 2-2.6 3-1 1-2.4 2.6-2.8 3.4-.4 1-1 1.6-1 1.7-.5.2-2.6 3.5-2.6 4 0 .2-.3.6-.6 1-.4.3-1 1-1 1.4-.3.8-.6 1.3-1.5 2.8-.3.5-.6 1.2-.7 1.5s-.6 1.3-1 2.3c-.4 1-1 2.6-1.5 4-.3 1.2-.8 2.3-1 2.5-.2.3-.4 1-.4 1.6 0 .6-.2 1-.5 1.3-.4.1-.7 1-.8 1.8-.2.8-.5 2.6-.7 4-1.3 7-2 22.8-1.3 24.5.3.5.5 2 .6 3.7.3 4 1 7 1.5 7.7.3.5.4 1.2.3 2-.2 1-.1 1.3.3 1.5s.6.7.6 1.2.5 2 1 3.2c.5 1.3 1 2.6 1 3 0 .3.6 1.7 1.2 3l3 5.8c1 2 2.2 4 2.7 4.5s1 1.2 1 1.6c0 .3.3 1 .8 1.4.4.4.8 1 .8 1s.8 1.4 1.8 2.4c1 1 2 2.2 2 2.4a38 38 0 0 0 7.8 7.7c.7.5 2 1.6 3 2.5 1 1 1.8 1.7 2 1.7s.8.4 1.2.8c.4.5 1 .8 1.4.8.4 0 1 .4 1.4.8a84 84 0 0 0 13 6.6c.4 0 1 .3 1.4.6s1.3.6 1.8.6c.6 0 1.4.3 1.8.6.5.4 1.3.7 2 .7s1.2.1 1.5.3c.4.4 1.5.6 6.5 1.2 1.4.2 2.7.5 3 .7 1 .5 18.8.4 19.5-.2.3-.3 1.5-.4 2.8-.4 1 .1 2.5 0 3-.3a5 5 0 0 1 2.1-.5c.6 0 1.4-.2 1.6-.5.3-.2 1-.5 1.4-.5a52 52 0 0 0 7.9-2.7c.3-.2 1.3-.5 2.2-.7 1-.1 2-.5 2-.8s.5-.6 1-.6c.4 0 1-.2 1.3-.5a57 57 0 0 1 6.3-4c.7-.3 1.3-.8 1.5-1 .1-.2.5-.5.8-.5s1.3-.8 2.4-1.8c1-1 2.2-2 2.5-2 .7 0 8.2-7.6 9.3-9.5.4-.8 1.3-2 2-2.3 1-.8 1.7-1.8 2.4-3.3l1.5-2.3 1.2-2c0-.1.4-1 1-1.6.6-.7 1.6-2.8 2.4-4.6.7-1.8 1.5-3.5 1.8-3.8a10 10 0 0 0 1-2.6c.3-1 .7-2 1-2.2s.3-.6.3-1 .3-1.3.6-1.8c.4-.4.7-1.3.7-2s.2-1.5.4-1.6.4-1 .4-2.2c0-1.2.2-2.2.4-2.3s.4-1.4.4-2.8.2-2.8.5-3.2c.6-.7.6-19 .1-20a13 13 0 0 1-.7-3.2l-1.2-6.7c-.2-.2-.3-1-.3-1.5a9 9 0 0 0-.6-2.5l-1.5-3.3a13 13 0 0 1-.8-2.5c0-.8-1.2-3.4-1.7-3.7-.2-.1-.4-.6-.4-1s-.2-1-.5-1.2c-.4-.3-.7-1-1-1.6-.1-.6-1.5-3-3-5.3a55 55 0 0 1-2.8-4.5c0-.1-1-1-2-2s-2.4-2.6-3-3.6c-.7-1-2.3-2.6-3.6-3.6s-2.6-2-3-2.5c-.5-.6-3.5-2.8-6-4.2l-1.7-1.4c-.5-.4-1-.8-1.2-.8a38 38 0 0 1-2.7-1.6c-1.4-1-3.2-2-4-2-.8-.3-1.4-.6-1.4-.8 0-.1-.8-.5-2-.8s-2.3-.8-2.8-1c-1-.7-6-2.2-7.2-2.2-.5 0-1.3-.3-1.7-.6-.5-.4-1.5-.7-2.3-.7s-1.7-.2-2-.4c-.5-.5-3.2-.7-13.6-1-4.4-.2-8-.1-8.3.1zm11.8 33l4.3.6 8.4 3c.2.2.6.3 1 .3s.8.3 1 .7c.1.3.4.6.6.6s1.5.7 3 1.7a57 57 0 0 1 12.7 13.2c2.5 4 4.5 8.5 4.7 10.5.2 1 .5 1.7.7 1.8.2.2.3.7.3 1.3 0 .7.3 2 .6 2.8 1 2.4 1 14.8 0 16-.3.4-.6 1.5-.6 2.4s-.1 1.8-.3 2c-.2.3-.6 1.5-1 2.7s-1 2.8-1.3 3.5c-.4.6-.8 1.5-1 1.8-.1.4-.4 1-.6 1.3-.2.3-.7 1.2-1 2-1 2.2-3 4.7-6.7 8.6-3 3.2-4.7 4.6-8.8 7.2-3.2 2-9 4.3-11.6 4.5-1 .2-2 .5-2 .7a56 56 0 0 1-14.7-.1c-.5-.2-1.4-.4-2-.4-1 0-4.8-1.3-8-3l-2-.8c-.2 0-1-.6-2-1.2l-3.4-2.3a47 47 0 0 1-8.4-8.3c0-.2-.5-1-1.2-1.8s-1.6-2-2-3c-.4-1-1-2-1-2.2-.2-.4-.7-1.3-1-2s-1-2.4-1.5-3.5c-.5-1.2-.8-2.3-.7-2.6.2-.2 0-.8-.3-1.3a5 5 0 0 1-.7-2.6c0-1-.2-2-.6-2.4-.8-1.2-.8-12 0-13.4.4-.5.6-1.7.6-2.5s.3-2 .6-2.7a36 36 0 0 0 1.5-4c1-2.8 2-5 4-8.2.5-1 1-2 1.2-2.2.2-.3 1-1.3 2-2.2 1-1 2-2.3 2.5-3.2s1.7-2 2.8-2.8c1-.6 2.5-1.8 3.4-2.6s2-1.5 2-1.5c.3 0 1.2-.5 2-1 1.7-1.3 5.7-3 8.7-3.8l2.6-1c.4-.2 2-.3 3.2-.4 1.5 0 3-.2 3.4-.4.5-.2 1.6-.2 2.5-.1l4.5.4z"/><path d="M304.7 24.5c-.6.5-.7 4-.5 52l1 57.7c.2.2.4 1 .4 1.6a44 44 0 0 0 5.6 14.4c2.3 4.3 10.5 12.7 15.2 15.5l1.3 1c1 .8 4.2 2.5 6.7 3.4l3 1.3a12 12 0 0 0 1.8.6c.8.1 1.7.5 2 .7.3.2 1 .3 1.7.2s1.6 0 2 .3a104 104 0 0 0 33.4.1c.2-.2 1-.3 1.7-.3 1.5 0 5.4-1 6-1.7.3-.2.8-.3 1.2-.3a56 56 0 0 0 10.7-5.4c3.6-2.4 10.3-9.3 12.6-12.8a56 56 0 0 0 5.9-11.7c.4-1.2 1-2.6 1-3 .6-1.4.8-3 1.2-6.5.2-1.8.5-3.8.8-4.5a2834 2834 0 0 0 0-101c-.4-.7-1-.7-16-.7H388l-.3 1.4c-.2.8-.1 6.8.2 13.3a60 60 0 0 1 .1 12.4c-.6.6-.6 4.2 0 4.6a186 186 0 0 1 .1 21l-1.3 45c-.3.4-.5 1.3-.5 1.8 0 .6-.4 1.8-.8 2.7-.5 1-1 2-1 2.3 0 .8-2 3.4-5 6.7-2 2-3.2 3-6.2 4.4a20 20 0 0 1-4.8 1.8c-.6 0-1 .2-1.3.4-.1.3-2.3.4-5.2.4a20 20 0 0 1-7.5-.8l-3.2-1-3.2-1.6-2.6-1.4c-.5 0-3.5-3.4-4.8-5.5-2.3-3.5-4.4-8.5-4.6-11.3l-.6-2.2c-.2-.2-.4-20-.4-47.5V25l-1-.5a206 206 0 0 0-29.4 0z"/></g><circle cx="199.3" cy="99.3" r="79.8"/><path d="M439.5 24.5h30v145h-30z"/></g><g fill-rule="nonzero"><path d="M178 108.4l14.6-52 31.7-2.8-15.3 44 25.4-2.2-52 64 14.8-52.8z"/><path d="M794-.1c0 .6 2.3 3.7 4.8 7 6.3 7.8 11 15.4 11 17.4 0 1-1 .8-4.2-.8-9-4.8-27.2-8-38.5-6.5l-6 .7 7 5.4c4 3 10.4 9 14.4 13 7 7.4 8.3 10.3 3.7 7.6-1.2-.7-4.5-1.4-7.3-1.6l-5-.5 5.5 7c9 11.4 13.3 22.4 15.8 38.8 1.5 10.3.5 21.7-3 34.4a81 81 0 0 1-20.4 33.6 100 100 0 0 1-23.1 13.5l-5.6 2 2.8 2.3a53 53 0 0 0 22.8 8.2c2.7 0 5 .4 5 1 0 1.2-3.5 4.4-7 6.2l-2.5 1.5 2.7 1.6c1.5 1 5 2 7.6 2.4 5.7 1 5.6 2.6-.5 6-5.6 3.5-14 3.6-20.2.4l-4.4-2.4-5 5.8c-3.7 4-6 8.2-8.2 14.7-6 17-5.4 21.4 2.5 21.4 5 0 10.6-4.3 14.6-11.3l2.4-4 6 2c3.8 1.3 9.7 2 17 2 10.3 0 12-.3 18.8-3.8 4.4-2.3 9.4-6 12-9l4.5-5.3 6 1.6c16 4 27 13.5 36 31.4l6.2 11c3.5 0 20-13 27.2-21.6 8.8-10 1-16-12.6-9.4l-6.3 3.2c-.5.1-1.2-1.7-1.5-4.2-1.6-9.4-7-19.4-14-26.3l-4-4 4.8-5.3c2.7-3.2 5.4-7 6-8.6 1-2 1.8-2.8 3-2.2 1 .5 6 1 11.4 1.2 12.3.3 19.3-2.3 26-9.7 5-6 6-11.2 3-15.7-2.5-4-7.7-5.8-10.7-4-4 2.2-8 6.2-8 8 0 3.7-10.2 5.6-13.8 2.5-1.2-1-2-4-2.4-9.8-.3-4.7-1-9.6-1.3-11-.8-2.5-.6-2.7 6.4-2.7 19 0 39.6-13.6 50.4-33.3 9.2-16.6 9.8-19.2 6-24.3-2-2.5-3-2.7-12.2-2.8-9.4 0-10.3-.3-14.7-3.8-2.6-2-7.7-7-11.2-11.3a98 98 0 0 0-12-12.1c-5.7-4.7-16-9.4-20.6-9.4-2 0-3.8-1.7-6.8-6.6C844 14.5 823 2.4 800.6-.2c-3.6-.4-6.5-.4-6.5.1z" fill="#ff7400"/></g></g><path d="M851 128.8c0 .3 1.8 2.6 4 5a28 28 0 0 1 8.3 21.3 48 48 0 0 1-8.9 31.5c-8.2 11.8-18 18.6-32.3 22.5l-6.2 1.7 4.7 1c2.6.5 8 2.6 12 4.6 10.7 5.4 17 12.2 24.4 27l6 11c2.2 0 11-5.8 18-12 11.3-9.7 14.6-13.6 14.7-17.3 0-6-12-6.3-21-.4-2 1.4-3.7 2.4-4 2.4s-.5-1-.4-2.2c.1-8.6-6-21-14.5-28.8l-4.3-4.2 4.8-5.4c2.7-3 5.6-6.7 6.5-8.4 1-2 2-2.8 2.7-2.6a43 43 0 0 0 28-.8c8.8-3.7 15-11 15-17.2 0-6.8-7-12.6-12-10.2-4.3 2-8.6 5.8-9 8-.7 3-2.5 3.8-7.6 3.8-7.7 0-8-.2-8.4-9.8-.7-13.3-.8-13.4-8-15.7l-8.8-3.6c-2-1-3.7-1.6-3.7-1.3zm-38.4 12.8c-3.3.8-8.5 3.3-8.5 4 0 .3-.7.8-1.5 1-2 .6-6 6.7-7.4 11.6-3.8 13.4 7 29 20 29 7 0 11.4-4.6 9.8-10.4-1-3.8-2-4.6-8.2-7.7-6-3-8-5.5-8-10.3 0-3.5 3.7-8.6 9-12 4.5-3 5-4 2.7-5.3-1.7-1-4-1-7.7 0z" fill="#e04b00" stroke="none" fill-rule="nonzero"/><g stroke="none" fill-rule="nonzero"><path d="M866 66.4c-2.7 3-2.8 5.8-.3 10 3.5 6 10 4.3 11.2-3 1-7.7-6.3-12.5-11-7zm53.8 9.6c-5 4.8-.1 15.6 7 15.6 6.6 0 10.4-10.6 5.4-15-3.2-2.8-9.7-3-12.3-.6zm-42 27.5c-.7.8.5 5.4 2 7.7 3 4.8 21.5 10.4 22.2 6.7.2-1.4-1.6-2.3-6.3-3.2a15 15 0 0 1-10.8-7.4c-2.3-3.6-5.6-5.2-7-3.8z" fill="#000"/><path d="M708.5 188.5c-4.4.5-14.6 1-22.6 1.5l-15 1c-.2.1 6.8 1 15.5 1.6l28.6 2.6c14.6 1.4 18.7.3 18.7-5.2 0-3-5.7-3.4-25.2-1.6zm-12.3 21l-23.2 1.8-8.5 1 10.5.8 23.3 2c14 1.3 17.7.6 17.7-3.4 0-1.8-2.3-3.7-4.3-3.2l-15.5 1z" fill="#f95100"/></g></svg>