<svg xmlns="http://www.w3.org/2000/svg" width="1150" height="323" stroke="#000" stroke-linecap="round" stroke-linejoin="round" fill="#fff" fill-rule="evenodd"><defs><linearGradient id="A" x1="50%" y1="0%" x2="50%" y2="100%"><stop offset="0%" stop-color="#ff7b00"/><stop offset="100%" stop-color="#ff4e03"/></linearGradient></defs><g stroke="none"><path fill="#f95100" d="M253.5 207l29-24.4 19.3 23-29 24.4z"/><g fill="url(#A)"><g fill-rule="nonzero"><path d="M654.7 25l-11.6 1c-2 .4-5 .8-6.6 1-1.7.2-3.3.7-3.6 1-.4.4-1.3.6-2 .6-.7 0-1.6.3-1.7.6-.2.2-.7.5-1.2.5-1.4 0-8 2.2-9 3-.5.4-1.2.7-1.7.7s-1 .2-1 .5a27 27 0 0 1-3.8 2.1c-2 1-4 2-4.4 2.4a16 16 0 0 1-4.3 2.7c-.5.3-1.8 1.2-2.7 2s-2 1.6-2.3 1.6c-.8 0-16.4 15.6-16.4 16.3 0 .4-1 1.5-1.8 2.5-1 1-1.8 2-1.8 2.5s-.5 1.2-1 1.6c-.6.6-1.5 2-2 3.4a47 47 0 0 1-2.9 5.2c-1 1.6-2 3.6-2 4.3-.2 1-1 2.5-1.6 3.6-.6 1.2-1.2 2.7-1.2 3.3s-.3 1.4-.7 1.7-1 1.3-1 2l-1 3.8-2 10.4c-.2 2-.5 3.7-1 4-1 1-1 27 .1 28 .5.4.7 1.6.7 4.2 0 2 .3 3.6.6 3.8.3.1.5 1 .5 2.2 0 1.8.7 4.7 1.6 6.4.2.5.4 1.5.4 2.2 0 .6.4 1.6.8 2.2.4.5.8 1.5.8 2 0 .7.4 1.4.8 1.8s.7 1 .8 1.5c0 .5 1 2.4 2 4.5 1 2 2 4 2.3 4.3 1 3 6.5 11.6 7.5 12.2.3.2 1 1 1.5 2a137 137 0 0 0 14 14.3c.3 0 1.4.8 2.4 1.7 2.4 2 5.2 4 5.7 4 .2 0 1.5.8 3 1.8s2.8 1.8 3 1.8 1 .3 1.3.7c.5.4 1.7 1 2.7 1.4 1 .3 2 1 2.5 1.3.5.3 1.8.8 3 1 1 .2 2.5.7 3 1 .5.5 1.4.8 2 .8s1.5.4 2 .8c.5.4 1.6.8 2.4.8.7 0 1.5.2 1.7.5.1.3 1.3.5 2.5.5 1 .1 2.7.4 3.4.7.7.4 2 .7 3 .5.8-.1 2.5.1 3.6.5a132 132 0 0 0 25.1.1c.4-.3 2-.7 3.6-1a64 64 0 0 0 5.2-.8l4-1c.8-.2 2.2-.6 3-1 .8-.4 2.5-1 3.8-1.3a158 158 0 0 0 17.1-8.3l4.4-3a48 48 0 0 0 5.4-4.2l2.8-2.2c1 0 8-7.4 8-8.3S721 183 720 183c-.4 0-2.2-1.6-4-3.6s-3.7-3.6-4-3.6-2-1.4-3.7-3l-6-5.3c-1.6-1.2-3.6-3-4.5-4-.8-1-2-1.8-2.3-1.8-.5 0-2.6 1.8-4.8 4l-4.3 4c-.3 0-1.2.6-2 1.4-2 1.7-11 6.3-12.3 6.3-.4 0-1.3.3-1.8.7-1.8 1.2-4.8 1.5-13.5 1.5-8.5 0-13.2-.5-14.3-1.6-.4-.3-1.2-.6-1.8-.6a47 47 0 0 1-13.1-6.4c-.7-.8-1.5-1.3-1.8-1.3a72 72 0 0 1-11.2-10.8c0-.4-.6-1.5-1.5-2.6-2.6-3.3-6.6-12-7.8-17-2.6-10-2-27 .8-33.6l1.5-3.6c1.6-4.5 2.7-6.8 4-8.6 1-1.2 1.5-2.3 1.5-2.5s.7-1 1.5-2c1-.8 1.6-1.7 1.6-2a41 41 0 0 1 8.6-8.7c1-.7 2.3-1.7 2.7-2.2.4-.4 1-.8 1.2-.8.2 0 1.6-.8 3-1.8s3-1.8 3.3-1.8 1-.3 1.3-.7 1.3-1 2-1l4.4-1a20 20 0 0 1 4.3-.8c.6 0 1.4-.3 1.5-.5.4-.7 13.2-.7 15-.1.6.3 2.6.7 4.3 1a54 54 0 0 1 16.1 7.9c.8.8 1.7 1.4 2 1.4 1 0 5.3 4.6 6.2 6.3 1.6 3 2.3 2.6 20-14l5.8-4.7c1-.1 8.8-8 8.6-9a75 75 0 0 0-17.5-15.8c-.3 0-.5-.2-.5-.6 0-.2-.8-.8-1.7-1.3a60 60 0 0 1-4.5-2.5c-1.6-1-3.3-1.8-3.8-1.8-.4 0-1-.3-1-.5-.3-.4-2.6-1.6-6.3-3.2l-3.3-1c-1.3-.3-2.6-.8-2.8-1-.3-.2-1.4-.5-2.4-.5-1 0-2.2-.3-2.6-.7-.3-.5-1.5-.8-2.7-.8a9 9 0 0 1-3.1-.6c-.5-.3-2.5-.6-4.2-.6l-5-.7a69 69 0 0 0-9.8-.1z"/><path d="M818.5 25c-.2.2-2.2.6-4.4.8l-11 1.8a23 23 0 0 1-5.9 1.7c-.5 0-1.8.5-3 1-1.8.8-3.3 1.4-7 3-.4.1-1 .5-1.5.7a20 20 0 0 1-2.9 1.4c-2.6 1.2-10.5 6.3-11.8 7.6-.5.5-1 1-1.5 1s-1.5.8-2.5 2c-1 1-3 2.8-4.4 4-3.7 2.7-5 4-5.8 5.8-.3.8-1.8 2.5-3.2 3.8s-3 3.2-3.6 4.3c-.6 1-1.2 2-1.4 2-.6.3-3.3 4.4-3.3 5 0 .2-.3.7-.8 1s-1 1-1.3 1.8c-.5 1-.8 1.6-2 3.6-.4.6-.8 1.4-1 1.8l-1.3 3c-.5 1-1.3 3.4-1.8 5l-1.3 3.3c-.3.3-.5 1-.5 2s-.3 1.5-.7 1.6c-.4.2-.8 1.2-1 2.3s-.6 3.4-1 5a139 139 0 0 0-1.6 31c.3.6.6 2.7.8 4.7.3 5 1 8.8 1.8 9.7.4.6.6 1.5.4 2.4-.2 1.2-.1 1.7.4 2 .4.2.8.8.8 1.5 0 .6.6 2.5 1.3 4l1.3 3.8c0 .5.7 2.2 1.5 3.7l3.7 7.4c1.2 2.5 2.8 5 3.4 5.6.7.7 1.2 1.6 1.2 2 0 .5.5 1.3 1 1.8.5.6 1 1.2 1 1.5a14 14 0 0 0 2.3 3c1.3 1.3 2.3 2.7 2.3 3a54 54 0 0 0 9.9 9.8c1 .5 2.7 2 4 3 1 1.2 2.2 2 2.5 2 .4 0 1 .5 1.6 1 .5.5 1.3 1 1.8 1s1.3.5 1.8 1c1 1 15.2 8.3 16.4 8.3.4 0 1.2.4 1.8.8.5.4 1.5.8 2.2.8.8 0 1.8.3 2.3.8.6.4 1.7.7 2.4.7s1.6.2 2 .5c.4.5 1.8.7 8.2 1.5 1.7.2 3.4.6 3.8.8a144 144 0 0 0 24.6-.2c.5-.3 2-.6 3.5-.5 1.5.2 3.3-.1 4-.4.6-.4 1.8-.6 2.6-.6s1.7-.3 2-.6 1-.6 1.8-.7a53 53 0 0 0 10-3.4c.3-.3 1.6-.6 2.8-.8s2.4-.7 2.5-1c.2-.4.7-.7 1.2-.7s1.3-.3 1.7-.7c.6-.6 4.4-3 8-5 .8-.4 1.6-1 1.8-1.4s.7-.6 1-.6c.3 0 1.7-1 3-2.4 1.4-1.3 2.8-2.3 3-2.3 1 0 10.4-9.6 11.8-12 .6-1 1.7-2.4 2.4-3 1.3-1 2.2-2.2 3-4 .2-.4 1-1.8 2-3 .7-1.2 1.4-2.3 1.4-2.5 0-.1.6-1 1.3-2a44 44 0 0 0 2.9-5.8c1-2.3 2-4.5 2.3-5 .3-.5 1-2 1.3-3.3.3-1.3 1-2.6 1-2.7.2-.2.4-.8.4-1.5 0-.6.4-1.6.8-2.2a5 5 0 0 0 .8-2.6c0-1 .2-1.8.5-2 .3-.1.5-1.4.5-2.8s.3-2.7.5-3c.3-.1.5-1.7.5-3.5 0-1.7.4-3.5.7-4a154 154 0 0 0 .1-25.4c-.3-.4-.7-2.2-1-4l-1.5-8.6c-.2-.2-.4-1-.4-2s-.3-2.2-.7-3c-.5-1-1.3-2.8-2-4-.6-1.4-1-2.8-1-3.2 0-1-1.5-4.4-2-4.7-.3-.2-.5-.8-.5-1.3s-.3-1.2-.8-1.5c-.4-.4-.8-1.3-1-2a45 45 0 0 0-4-6.7l-3.5-5.7c0-.2-1-1.3-2.4-2.5a33 33 0 0 1-3.9-4.6c-.8-1.2-2.8-3.3-4.5-4.5-1.6-1.2-3.3-2.6-3.6-3.2-.6-.8-4.5-3.6-7.5-5.3l-2-1.7c-.7-.6-1.3-1-1.5-1s-1.8-1-3.5-2c-1.8-1-4-2.3-5-2.6s-1.7-.8-1.7-1c0-.1-1-.6-2.5-1s-3-1-3.5-1.4c-1.4-.8-7.7-2.8-9-2.8-.7 0-1.7-.4-2.2-.8-.6-.4-2-.8-3-.8s-2-.2-2.4-.5c-.7-.7-4-1-17.3-1.3a70 70 0 0 0-10.5.1zm15 42c2 .1 4.5.5 5.5.7l10.6 3.7c.2.2.7.5 1.3.5.5 0 1 .3 1.2.7s.5.8.8.8a21 21 0 0 1 3.7 2.1c4.7 3 13 12 16 16.8 3.2 5.2 5.7 10.7 6 13.3.2 1 .6 2 .8 2.3.2.1.4.8.4 1.6s.4 2.3.8 3.5a62 62 0 0 1 0 20.2c-.4.5-.8 2-.8 3 0 1-.2 2.3-.4 2.5-.2.4-.7 2-1 3.4-.4 1.6-1 3.5-1.6 4.4-.6.8-1 2-1.3 2.3l-.8 1.6c-.3.4-.8 1.5-1.2 2.5-1.3 2.8-3.8 6-8.5 11a44 44 0 0 1-11.2 9.1 44 44 0 0 1-14.6 5.8c-1.2.1-2.4.5-2.7.8a72 72 0 0 1-18.5-.1c-.6-.3-1.8-.6-2.6-.6-1.4 0-6-1.6-10.2-3.6-1.2-.6-2.2-1-2.5-1-.2 0-1.3-.7-2.5-1.6-1.3-1-3.2-2-4.3-3a55 55 0 0 1-10.6-10.4c0-.3-.8-1.4-1.6-2.3-1-1-2-2.6-2.6-3.8l-1.5-2.8-1.2-2.6-2-4.5c-.6-1.5-1-3-1-3.2.3-.3 0-1-.4-1.7s-.8-2-.8-3.3c0-1-.4-2.5-.8-3-1-1.5-1-15 0-17a10 10 0 0 0 .8-3.2c0-1 .3-2.5.7-3.4.4-.7 1.3-3 2-5 1.2-3.6 2.5-6.3 5-10.4.7-1 1.4-2.4 1.6-2.8a19 19 0 0 1 2.4-2.8c1-1 2.5-3 3-4 .6-1 2.2-2.6 3.5-3.4s3.3-2.3 4.4-3.4c1-1 2.3-1.8 2.6-1.8.4 0 1.5-.7 2.6-1.5 2.2-1.5 7.3-3.7 11-4.8 1.3-.3 2.7-.8 3.2-1 .5-.3 2.4-.5 4-.6 2 0 3.8-.2 4.3-.5.6-.2 2-.3 3-.2 1.2.2 3.8.4 5.7.6z"/><path d="M336 31.2c-1 .6-1 5-.7 65.8l1.4 73c.3.3.5 1.2.5 2 0 3 2.4 9 7.2 18 2.7 5.5 13 16 19 19.7.6.3 1.3.8 1.6 1 1.3 1 5.3 3 8.5 4.3l3.7 1.6c.3.2 1.3.5 2.3.7s2 .7 2.4 1c.4.3 1.3.4 2 .3.8-.2 2 0 2.7.4a130 130 0 0 0 42.2.1c.2-.2 1.2-.4 2.2-.4 1.8 0 6.7-1.4 7.6-2 .3-.3 1-.5 1.4-.5a72 72 0 0 0 13.6-6.7 79 79 0 0 0 15.9-16.2 68 68 0 0 0 7.4-14.8c.5-1.6 1-3.3 1.3-4 .7-1.8 1-4 1.5-8.3.2-2.3.7-4.8 1-5.6.8-2 .8-126 .1-127.6-.5-1-1.3-1-20.2-1h-19.6l-.4 1.8c-.1 1 0 8.6.3 17 .6 11.2.6 15 .1 15.6-.7.7-.7 5.4 0 5.8.4.3.5 7.5.2 26.6l-1.7 56.8c-.3.6-.6 1.6-.6 2.3s-.5 2.2-1 3.4c-.5 1-1 2.5-1 3 0 1-2.4 4.2-6.5 8.4a22 22 0 0 1-7.8 5.6c-2.7 1.2-5.4 2.3-6 2.3s-1.4.2-1.6.5a23 23 0 0 1-6.7.5c-5 0-7-.2-9.4-1l-4-1.3c-.5-.3-2.3-1-4-2-1.6-1-3-1.7-3.3-1.7-.6 0-4.3-4.4-6-7a38 38 0 0 1-5.8-14.2c-.2-1.3-.5-2.6-.7-2.8a1676 1676 0 0 1-.5-60.1V31.7l-1.3-.5c-2-1-36-1-37 0z"/></g><circle cx="215.4" cy="125.7" r="100.9"/><path d="M506.3 31h38v183.3h-38z"/></g><g fill-rule="nonzero"><path d="M188.5 137l18.3-65.6 40-3.5-19.4 55.7 32-2.8-65.6 81 18.7-66.8z"/><path d="M967 0c0 .7 3 4.7 6 9 8 9.8 14 19.4 14 22 0 1.3-1.4 1-5.3-1-11.3-6-34.4-10-48.7-8.2l-7.4 1 9 6.8c5 3.8 13 11.2 18 16.5 8.7 9.4 10.5 13 4.7 9.7-1.6-1-5.7-1.8-9.3-2l-6.4-.6 7 9c11.3 14.4 16.8 28.3 20 49 1.8 13 .5 27.4-3.7 43.4-4 14.4-15.5 33.3-26 42.4a121 121 0 0 1-29.1 17.1l-7 2.4 3.5 3a68 68 0 0 0 28.9 10.5c3.4 0 6 .4 6 1.2 0 1.5-4.4 5.6-8.7 7.8l-3 2 3.4 2c1.8 1 6 2.4 9.6 3 7.2 1.2 7 3.2-.6 7.7-7.2 4.4-18 4.6-25.6.5l-5.5-3-6.4 7.2c-4.8 5.2-7.8 10.5-10.5 18.6-7.4 21.5-6.8 27 3.2 27 6.3 0 13.4-5.4 18.5-14.3l3-5.2 7.4 2.6a75 75 0 0 0 21.7 2.4c13 0 15.2-.4 23.7-4.8a58 58 0 0 0 15.3-11.5l5.7-6.7 7.7 2c20 5 34 17 45.5 39.6l8 14c4.4 0 25.2-16.5 34.4-27.2 11-13 1.3-20.3-16-12l-8 4c-.6.1-1.4-2-2-5.3-2-12-8.7-24.5-17.8-33.3l-5-5 6-6.8 7.7-10.7c1.2-2.7 2.3-3.7 4-3 1.3.6 7.7 1.2 14.4 1.5 15.5.5 24.4-3 32.7-12.2 6.4-7.5 7.7-14 3.7-20-3.2-4.8-9.7-7.2-13.6-5-4.8 2.7-10 7.8-10 10 0 4.7-12.8 7-17.4 3-1.6-1.2-2.6-5-3-12.4-.4-6-1-12-1.7-14-1-3.2-.7-3.4 8-3.4 24 0 50-17.2 63.7-42 11.7-21 12.4-24.3 7.6-30.7-2.5-3.2-4-3.5-15.5-3.6-11.8 0-13-.3-18.5-4.7a108 108 0 0 1-14.1-14.4c-4.5-5.3-11.3-12.3-15.2-15.3a58 58 0 0 0-26.1-11.8c-2.6 0-4.7-2-8.5-8.3-13.3-21-39.7-36.3-68-39.7-4.6-.4-8.3-.4-8.3.2z" fill="#ff7400"/></g></g><path d="M1039 163c0 .4 2.3 3.3 5 6.5a36 36 0 0 1 10.5 27c.7 15.7-2.6 27.2-11.3 39.8-10.3 15-22.6 23.5-40.7 28.5l-8 2 6 1.3a86 86 0 0 1 15.3 5.9c13.6 6.8 21.4 15.4 31 34l7.6 13.8c2.7 0 13.7-7.2 22.8-15 14.3-12.4 18.3-17.2 18.4-22 .1-7.7-15-8-26.3-.4-2.4 1.7-4.7 3-5 3s-.6-1.2-.5-2.8c.1-10.8-7.6-26.4-18.2-36.4l-5.6-5.3 6-6.8a77 77 0 0 0 8.2-10.7c1.3-2.5 2.4-3.5 3.4-3.2 9 3.6 25.3 3 35.3-1 11.2-4.7 19.2-13.8 19.2-21.8 0-8.6-8.8-16-15.4-12.8-5.3 2.4-10.8 7.3-11.4 10-.8 3.6-3 4.8-9.6 4.8-9.7 0-10-.4-10.6-12.4-1-16.8-1-17-10.2-20l-11-4.5c-2.6-1.3-4.7-2-4.7-1.7zm-48.4 16.2c-4 1-10.8 4-10.8 5 0 .4-.8 1-1.8 1.3-2.7.8-7.7 8.4-9.4 14.7-4.8 17 8.7 36.5 25.2 36.6 8.8 0 14.3-5.8 12.3-13-1.3-4.8-2.5-6-10.3-9.7-7.7-3.8-10-7-10-13 0-4.4 4.6-10.8 11.2-15 5.7-4 6.4-5 3.5-6.6-2.2-1-5-1.2-9.8 0z" fill="#e04b00" stroke="none" fill-rule="nonzero"/><g stroke="none" fill-rule="nonzero"><path d="M1058 84c-3.5 4-3.6 7.3-.4 12.8 4.4 7.7 12.8 5.4 14-4 1.3-9.7-8-15.7-13.7-9zm68 12.2c-6.2 6-.1 19.7 8.8 19.7 8.4 0 13-13.4 6.7-19-4-3.5-12.2-4-15.5-.7zm-53.3 34.8c-1 1 .6 6.8 2.6 9.7 4 6.2 27.2 13 28 8.4.3-1.8-2-3-8-4-6.3-1-9.6-3.5-13.7-9.3-3-4.5-7-6.7-9-4.8z" fill="#000"/><path d="M859 238.4a861 861 0 0 1-28.6 2l-19 1.3a208 208 0 0 0 19.5 2.1l36.3 3.3c18.5 1.8 23.6.4 23.6-6.6 0-4-7.2-4.3-32-2zM843.4 265l-29.4 2.3-10.7 1 13.3 1L846 272c17.5 1.7 22.3.8 22.3-4.4 0-2.3-3-4.6-5.4-4a1109 1109 0 0 1-19.6 1.4z" fill="#f95100"/></g></svg>