<svg xmlns="http://www.w3.org/2000/svg" width="1150" height="323" stroke="#000" stroke-linecap="round" stroke-linejoin="round" fill="#fff" fill-rule="evenodd"><defs><linearGradient id="A" x1="50%" y1="0%" x2="50%" y2="100%"><stop offset="0%" stop-color="#ff7b00"/><stop offset="100%" stop-color="#ff4e03"/></linearGradient></defs><path d="M907 0c0 .7 3 4.7 6 9 8 9.8 14 19.4 14 22 0 1.3-1.4 1-5.3-1-11.3-6-34.4-10-48.7-8.2l-7.4 1 9 6.8c5 3.8 13 11.2 18 16.5 8.7 9.4 10.5 13 4.7 9.7-1.6-1-5.7-1.8-9.3-2l-6.4-.6 7 9c11.3 14.4 16.8 28.3 20 49 1.8 13 .5 27.4-3.7 43.4-4 14.4-15.5 33.3-26 42.4a121 121 0 0 1-29.1 17.1l-7 2.4 3.5 3a68 68 0 0 0 28.9 10.5c3.4 0 6 .4 6 1.2 0 1.5-4.4 5.6-8.7 7.8l-3 2 3.4 2c1.8 1 6 2.4 9.6 3 7.2 1.2 7 3.2-.6 7.7-7.2 4.4-18 4.6-25.6.5l-5.5-3-6.4 7.2c-4.8 5.2-7.8 10.5-10.5 18.6-7.4 21.5-6.8 27 3.2 27 6.3 0 13.4-5.4 18.5-14.3l3-5.2 7.4 2.6a75 75 0 0 0 21.7 2.4c13 0 15.2-.4 23.7-4.8a58 58 0 0 0 15.3-11.5l5.7-6.7 7.7 2c20 5 34 17 45.5 39.6l8 14c4.4 0 25.2-16.5 34.4-27.2 11-13 1.3-20.3-16-12l-8 4c-.6.1-1.4-2-2-5.3-2-12-8.7-24.5-17.8-33.3l-5-5 6-6.8 7.7-10.7c1.2-2.7 2.3-3.7 4-3 1.3.6 7.7 1.2 14.4 1.5 15.5.5 24.4-3 32.7-12.2 6.4-7.5 7.7-14 3.7-20-3.2-4.8-9.7-7.2-13.6-5-4.8 2.7-10 7.8-10 10 0 4.7-12.8 7-17.4 3-1.6-1.2-2.6-5-3-12.4-.4-6-1-12-1.7-14-1-3.2-.7-3.4 8-3.4 24 0 50-17.2 63.7-42 11.7-21 12.4-24.3 7.6-30.7-2.5-3.2-4-3.5-15.5-3.6-11.8 0-13-.3-18.5-4.7a108 108 0 0 1-14.1-14.4c-4.5-5.3-11.3-12.3-15.2-15.3A58 58 0 0 0 992 47.8c-2.6 0-4.7-2-8.5-8.3-13.3-21-39.7-36.3-68-39.7-4.6-.4-8.3-.4-8.3.2z" fill="#ff7400" fill-rule="nonzero" stroke="none"/><g fill="#e04b00" fill-rule="nonzero" stroke="none"><path d="M979 163c0 .4 2.3 3.3 5 6.5 8 9.6 10 14.4 10.5 27 .7 15.7-2.6 27.2-11.3 39.8-10.3 15-22.6 23.5-40.7 28.5l-8 2 6 1.3a86 86 0 0 1 15.3 5.9c13.6 6.8 21.4 15.4 31 34l7.6 13.8c2.7 0 13.7-7.2 22.8-15 14.3-12.4 18.3-17.2 18.4-22 .1-7.7-15-8-26.3-.4-2.4 1.7-4.7 3-5 3s-.6-1.2-.5-2.8c.1-10.8-7.6-26.4-18.2-36.4L980 243l6-6.8c3.4-3.8 7-8.5 8.2-10.7 1.3-2.5 2.4-3.5 3.4-3.2 9 3.6 25.3 3 35.3-1 11.2-4.7 19.2-13.8 19.2-21.8 0-8.6-8.8-16-15.4-12.8-5.3 2.4-10.8 7.3-11.4 10-.8 3.6-3 4.8-9.6 4.8-9.7 0-10-.4-10.6-12.4-1-16.8-1-17-10.2-20l-11-4.5c-2.6-1.3-4.7-2-4.7-1.7z" fill="#f95100"/><path d="M930.6 179.2c-4 1-10.8 4-10.8 5 0 .4-.8 1-1.8 1.3-2.7.8-7.7 8.4-9.4 14.7-4.8 17 8.7 36.5 25.2 36.6 8.8 0 14.3-5.8 12.3-13-1.3-4.8-2.5-6-10.3-9.7-7.7-3.8-10-7-10-13 0-4.4 4.6-10.8 11.2-15 5.7-4 6.4-5 3.5-6.6-2.2-1-5-1.2-9.8 0z"/></g><g fill-rule="nonzero" stroke="none"><path d="M998.4 89c-4 4-4 7.3-.4 12.8 5 7.7 14.8 5.4 16.4-4 1.5-9.7-9.2-15.7-16-9zm71.6 8.3c-3.2 5.2 3.6 13.4 9.7 11.8 5.8-1.6 6.6-11.6 1-14.3-3.4-1.6-9.2-.3-10.8 2.5z" fill="#000"/><path d="M799 238.4a861 861 0 0 1-28.6 2l-19 1.3a208 208 0 0 0 19.5 2.1l36.3 3.3c18.5 1.8 23.6.4 23.6-6.6 0-4-7.2-4.3-32-2zM783.4 265l-29.4 2.3-10.7 1 13.3 1L786 272c17.5 1.7 22.3.8 22.3-4.4 0-2.3-3-4.6-5.4-4a1109 1109 0 0 1-19.6 1.4z" fill="#f95100"/><path d="M1008 132.5c-.8 1 1.2 6.3 3 9 4.3 5.5 26.7 10.2 27 5.7.2-1.8-2.2-2.7-8-3.2-6-.5-9.4-2.4-13.6-7.6-3.2-4-7-5.7-8.8-3.8z" fill="#000"/></g><g transform="translate(164.5 32.8)" stroke="none"><path fill="#f95100" d="M126.3 165.7l26.6-22 17.5 21-26.6 22z"/><g fill="url(#A)"><g fill-rule="nonzero"><path d="M491 .1l-10.6.8-6 1c-1.5.2-3 .6-3.3 1-.3.4-1 .6-1.8.6s-1.4.2-1.6.5c-.1.2-.6.5-1 .5-1.2 0-7.3 2-8 2.6-.4.4-1 .6-1.5.6s-.8.2-1 .5c-.2.2-1.7 1-3.4 2-1.8.8-3.6 1.8-4 2.2a19 19 0 0 1-3.9 2.4 15 15 0 0 0-2.5 1.9c-1 .8-1.8 1.5-2 1.5a149 149 0 0 0-14.9 14.8c0 .4-.8 1.4-1.7 2.2-1 1-1.6 2-1.6 2.3 0 .4-.4 1-1 1.6-.5.4-1.4 1.7-2 3a82 82 0 0 1-2.6 4.8c-1 1.4-1.8 3-2 4-.2.7-.8 2.2-1.5 3.2-.6 1-1 2.5-1 3 0 .6-.3 1.3-.6 1.6-.4.2-.8 1-1 1.8l-.8 3.4-1.8 9.5c-.1 1.8-.4 3.4-1 3.7a102 102 0 0 0 .1 25.3c.5.4.7 1.5.7 3.8 0 1.8.2 3.4.5 3.5.2.1.4 1 .4 2 0 1.7.7 4.3 1.5 5.8.2.5.4 1.4.4 2s.3 1.5.7 2 .7 1.4.7 2 .3 1.2.7 1.6c.4.3.7 1 .8 1.3 0 .5.8 2.2 2 4l2 4c1 2.6 5.8 10.5 6.8 11a7 7 0 0 1 1.4 1.9 130 130 0 0 0 12.7 12.9c.2 0 1.2.7 2 1.5 2.3 2 4.7 3.7 5.2 3.7.2 0 1.4.7 2.7 1.6s2.5 1.7 2.8 1.7.8.3 1.2.6c.4.4 1.5 1 2.4 1.3 1 .3 2 1 2.3 1.2.4.3 1.6.7 2.7 1 1 .1 2.3.6 2.8 1 .5.4 1.3.7 2 .7.5 0 1.3.4 2 .7.4.4 1.4.7 2 .7s1.4.2 1.6.5c.1.3 1 .5 2.2.5s2.5.3 3.2.6c.6.4 1.8.6 2.6.5.7-.1 2.2.1 3.2.4 2.2.7 21.7.8 23 .1.4-.3 1.8-.6 3.2-.8s3.6-.5 4.7-.8l3.6-.7c.8-.2 2-.6 2.8-1 .8-.3 2.3-1 3.5-1.2 2.2-.6 13.4-6 15.5-7.5.7-.4 2.5-1.6 4-2.6 1.6-1 3.8-2.7 5-3.8l2.6-2a37 37 0 0 0 7.3-7.5c0-1-5-6.2-6-6.2-.3 0-2-1.5-3.7-3.2-1.7-2-3.4-3.3-3.7-3.3-.4 0-2-1.3-3.4-2.8l-5.4-4.7c-1.5-1-3.4-2.8-4-3.6-.8-1-1.7-1.6-2.2-1.6-.3 0-2.3 1.6-4.2 3.5l-4 3.5c-.2 0-1 .6-2 1.3a48 48 0 0 1-11.2 5.8c-.4 0-1 .3-1.7.6-1.5 1-4.2 1.4-12.2 1.4-7.7 0-12-.5-13-1.5-.3-.3-1-.5-1.6-.5a40 40 0 0 1-11.9-5.9c-.6-.7-1.4-1.2-1.7-1.2a67 67 0 0 1-10.1-9.8c0-.3-.6-1.4-1.3-2.3-2.4-3-6-11-7.2-15.4-2.3-9.2-2-24.5.8-30.5l1.3-3.3c1.5-4 2.5-6 3.7-7.8l1.3-2.2c0-.3.7-1 1.4-1.8.8-.7 1.4-1.6 1.4-1.8 0-.8 5.8-6.6 8-8 1-.6 2-1.5 2.4-2 .4-.4.8-.7 1-.7.2 0 1.5-.8 2.7-1.7a11 11 0 0 1 3-1.6c.4 0 1-.3 1.2-.7.3-.3 1-.7 1.8-1 .8-.1 2.5-.5 4-1 1.5-.5 3.3-.8 4-.8s1.3-.2 1.4-.5c.4-.6 12-.6 13.5 0l4 1c3.3.6 13 5.3 14.7 7 .7.8 1.5 1.3 1.8 1.3.7 0 4.8 4.2 5.6 5.8 1.5 2.8 2 2.3 18-12.7 2.5-2.4 5-4.3 5.2-4.3a32 32 0 0 0 7.8-8.2c-.4-2-14-14.4-15.8-14.4-.3 0-.5-.2-.5-.5 0-.2-.7-.8-1.5-1.2-1-.3-2.7-1.4-4-2.3-1.5-1-3-1.6-3.4-1.6-.5 0-1-.2-1-.5S527 7 523.5 5.7c-.5-.3-1.8-.7-3-1l-2.5-1c-.3-.2-1.3-.4-2.3-.4-1 0-2-.3-2.3-.7-.3-.4-1.3-.7-2.4-.7-1 0-2.3-.2-2.8-.5s-2.3-.6-3.8-.6c-1.6-.1-3.7-.4-4.6-.6s-5-.3-9-.1z"/><path d="M639.7.3c-.2.2-2 .5-4 .7a41 41 0 0 0-9.9 1.7c-2 .8-4.5 1.5-5.4 1.5-.4 0-1.6.4-2.8 1a87 87 0 0 1-6.4 2.6c-.4.1-1 .5-1.4.7l-2.6 1.3c-2.4 1-9.6 5.7-10.7 6.8-.5.5-1 1-1.4 1-.4 0-1.4.7-2.3 1.7a37 37 0 0 1-4 3.5c-3.3 2.5-4.5 3.7-5.3 5.3-.3.8-1.6 2.3-3 3.5-1.3 1-2.8 3-3.3 3.8-.5 1-1 2-1.2 2a16 16 0 0 0-3 4.6c0 .2-.3.7-.7 1-.5.3-1 1-1.2 1.6-.4 1-.7 1.5-1.8 3.3-.3.5-.7 1.3-.8 1.6-.1.4-.7 1.6-1 2.7-.5 1-1.2 3-1.7 4.4-.4 1.5-1 2.8-1.2 3-.2.3-.4 1-.4 1.7s-.3 1.4-.7 1.5c-.3.2-.7 1-1 2s-.5 3-.8 4.6a124 124 0 0 0-1.4 28.2c.3.5.5 2.4.7 4.2.3 4.6 1 8 1.6 9 .4.5.5 1.3.4 2.2-.2 1-.1 1.5.4 1.7.4.2.7.7.7 1.3s.5 2.3 1.2 3.8l1.2 3.4c0 .5.6 2 1.3 3.4l3.3 6.7c1.2 2.3 2.6 4.6 3 5 .6.6 1.2 1.4 1.2 2 0 .4.4 1 1 1.6s1 1 1 1.3c0 .3 1 1.5 2.2 2.7l2 2.8c0 .8 7 7.6 9 9 1 .5 2.5 1.8 3.5 2.8 1 1 2 2 2.4 2s1 .5 1.4 1 1.2 1 1.6 1c.5 0 1.2.4 1.6 1 1 1 14 7.6 15 7.6.5 0 1.2.3 1.7.7.4.4 1.4.7 2 .7.7 0 1.6.3 2 .7s1.5.7 2.2.7c.6 0 1.4.2 1.7.4.4.5 1.7.7 7.4 1.4a17 17 0 0 1 3.5.7 129 129 0 0 0 22.4-.1c.4-.4 1.7-.6 3-.5s3-.1 3.6-.4c.5-.3 1.6-.6 2.3-.6.8 0 1.6-.2 2-.5s1-.5 1.6-.6c1.5-.2 8.5-2.6 9-3 .3-.2 1.4-.5 2.6-.7 1-.2 2-.6 2.2-1s.6-.6 1-.6 1.2-.3 1.5-.6a55 55 0 0 1 7.3-4.6c.7-.4 1.5-1 1.7-1.3s.6-.6 1-.6 1.6-1 2.8-2 2.5-2 2.8-2c.8 0 9.4-8.8 10.7-11 .5-1 1.6-2.2 2.2-2.7 1.2-1 2-2 2.8-3.8a24 24 0 0 1 1.7-2.7l1.3-2.2c0-.2.5-1 1-1.8.6-1 2-3.2 2.7-5.3 1-2 1.8-4 2-4.5.3-.3.8-1.6 1.2-3 .3-1.2.8-2.4 1-2.5.3-.1.5-.7.5-1.3s.3-1.5.7-2 .7-1.5.7-2.4c0-.8.2-1.6.4-1.8.3-.1.5-1.3.5-2.6 0-1.2.3-2.4.5-2.6.3-.1.5-1.5.5-3s.2-3.3.6-3.7a137 137 0 0 0 0-23.1c-.2-.3-.5-2-.7-3.7-.6-5.5-1-7.2-1.4-7.7-.2-.2-.4-1-.4-1.8 0-.7-.3-2-.7-2.8l-1.6-3.7c-.6-1.3-1-2.6-1-3a9 9 0 0 0-1.9-4.3c-.2-.2-.5-.7-.5-1.2 0-.4-.2-1-.6-1.4s-.8-1-1-1.7c-.1-.7-1.7-3.5-3.6-6.2-1.8-2.7-3.2-5-3.2-5 0-.2-1-1.2-2.2-2.3a32 32 0 0 1-3.5-4.1c-.7-1.2-2.5-3-4-4.2l-3.4-2.8c-.6-.8-4-3.3-6.8-5-.4-.3-1.3-1-2-1.6-.6-.5-1.2-1-1.4-1a32 32 0 0 1-3.1-1.9c-1.6-1-3.7-2-4.6-2.4-.8-.3-1.6-.7-1.6-1 0-.1-1-.6-2.2-1-1.2-.3-2.6-1-3.2-1.2-1.3-.8-7-2.6-8.3-2.6-.6 0-1.5-.3-2-.7S668 2 667 2c-1 0-2-.3-2.2-.5-.6-.7-3.7-1-15.6-1.2-5-.2-9.4-.1-9.6.1zm13.6 38l5 .7 9.6 3.3c.2.3.7.5 1.2.5s1 .3 1 .7c.2.3.5.7.7.7a14 14 0 0 1 3.4 1.9c4.2 2.8 12 10.8 14.5 15.2a43 43 0 0 1 5.5 12.1c.2 1 .5 2 .7 2 .2.1.4.8.4 1.5s.3 2 .7 3c1 2.8 1 17 0 18.4-.4.5-.7 1.7-.7 2.8s-.2 2-.4 2.3c-.2.3-.6 1.7-1 3-.3 1.4-1 3.2-1.4 4-.6.7-1 1.7-1.2 2l-.7 1.4c-.3.4-.8 1.4-1.2 2.3-1 2.5-3.4 5.5-7.6 10-3.5 3.7-5.5 5.3-10.2 8.3-3.7 2.3-10.3 5-13.3 5.2-1 .2-2 .5-2.4.8-.6.7-15.5.6-17-.1-.5-.3-1.5-.5-2.3-.5-1.3 0-5.5-1.5-9.3-3.4-1-.5-2-1-2.2-1s-1.3-.6-2.4-1.4a44 44 0 0 0-3.9-2.6c-2.3-1.5-9.6-8.7-9.6-9.5 0-.2-.7-1.2-1.4-2-.8-.8-2-2.4-2.4-3.4l-1.3-2.6c-.3-.4-.8-1.5-1-2.3l-1.8-4c-.5-1.4-1-2.7-.7-3 .2-.3 0-1-.4-1.6s-.8-2-.8-3c0-1-.3-2.3-.7-2.7a40 40 0 0 1 0-15.4c.4-.6.7-2 .7-3 0-1 .3-2.3.7-3s1-2.8 1.7-4.6a38 38 0 0 1 4.5-9.4l1.4-2.6c.2-.4 1.2-1.5 2.2-2.6 1-1 2.2-2.6 2.8-3.6s2-2.5 3.2-3.2 3-2 4-3c1-1 2-1.7 2.4-1.7s1.3-.6 2.3-1.3c2-1.4 6.6-3.4 10-4.4 1.2-.3 2.5-.7 3-1 .5-.3 2.2-.5 3.8-.5s3.3-.2 4-.5c.5-.2 1.7-.3 2.8-.2a51 51 0 0 0 5.2.5z"/><path d="M201.2 5.8c-.7.6-.8 4.5-.6 59.8L202 132c.2.2.4 1 .4 1.8a49 49 0 0 0 6.5 16.5c2.6 5 12 14.7 17.5 18l1.4 1c1 1 4.8 2.8 7.7 4l3.3 1.4c.3.2 1.2.6 2 .7 1 .2 2 .6 2.2.8.4.3 1.2.4 2 .3.8-.2 1.8 0 2.5.4a118 118 0 0 0 38.4 0c.1-.1 1-.3 2-.3 1.7 0 6-1.2 7-2 .3-.2.8-.4 1.3-.4 1 0 9.4-4 12.3-6 4-2.8 12-10.7 14.5-14.8 3-4.3 5.5-9.6 6.8-13.4.4-1.5 1-3 1-3.6a26 26 0 0 0 1.4-7.5c.2-2 .6-4.4 1-5 .7-1.7.8-114.6 0-116-.4-.8-1-1-18.3-1h-17.8l-.3 1.7c-.2 1-.1 7.8.3 15.3.4 10.2.4 13.8 0 14.2a7 7 0 0 0 0 5.3c.4.3.4 6.8.2 24l-1.5 51.6c-.3.6-.6 1.5-.6 2.2 0 .6-.4 2-1 3-.5 1-1 2.2-1 2.6 0 1-2.2 4-6 7.7-2.2 2.3-3.7 3.4-7 5-2.4 1-5 2-5.5 2-.7 0-1.3.3-1.5.5-.2.3-2.7.5-6 .5-4.6 0-6.4-.2-8.6-1l-3.7-1.2a33 33 0 0 1-3.7-1.9c-1.5-1-2.8-1.6-3-1.6-.5 0-4-4-5.5-6.3-2.6-4-5-9.7-5.3-13-.1-1.2-.4-2.3-.7-2.6a1883 1883 0 0 1-.4-54.5V6.3l-1-.5c-1.8-.8-32.7-.8-33.8 0z"/></g><circle cx="91.7" cy="91.7" r="91.7"/><path d="M356 5.7h34.5v166.5H356z"/></g><path d="M67.3 102.3l16.7-60 36.6-3.3L103 89.8l29.2-2.6-59.7 74 17-61z" fill-rule="nonzero"/></g></svg>